<?xml version="1.0" encoding="iso-8859-1"?>
<svg fill="current" height="800px" width="800px" version="1.1" id="Capa_1" xmlns="http://www.w3.org/2000/svg" xmlns:xlink="http://www.w3.org/1999/xlink" 
	 viewBox="0 0 483.626 483.626" xml:space="preserve">
<g>
	<path d="M293.413,306.555c-2.478-10.185-13.858-19.12-24.355-19.12l-21.376,0.086c1.271-4.944,4.883-16.622,12.513-26.523
		c4.008,3.761,7.706,5.244,8.077,5.386c5.334,2.041,11.313-0.626,13.354-5.962c2.041-5.334-0.629-11.314-5.962-13.354
		c-0.074-0.028-7.14-3.721-4.945-18.734c0.827-5.65-3.085-10.902-8.736-11.728c-3.362-0.492-6.583,0.693-8.814,2.925
		c-1.519,1.519-2.579,3.522-2.913,5.811c-0.892,6.097-0.817,11.343-0.114,15.851c-1.82,1.796-3.506,3.668-5.068,5.583v-29.521
		c8.722-1.538,13.815-6.197,14.2-6.561c4.155-3.918,4.35-10.463,0.429-14.617c-3.918-4.155-10.464-4.347-14.617-0.43
		c-0.058,0.055-6.453,4.816-19.023-3.682c-4.731-3.199-11.16-1.956-14.358,2.775c-1.903,2.815-2.233,6.23-1.193,9.211
		c0.708,2.027,2.053,3.852,3.969,5.146c3.47,2.346,6.776,4.111,9.912,5.425v32.295c-1.299-1.523-2.674-3.016-4.141-4.455
		c2.936-10.499-0.488-18.513-0.732-19.059c-2.329-5.215-8.442-7.557-13.659-5.227c-5.215,2.329-7.554,8.444-5.226,13.658
		c0.032,0.071,2.417,7.68-9.751,16.744c-4.58,3.411-5.527,9.891-2.115,14.47c2.03,2.726,5.145,4.165,8.301,4.165
		c2.148,0,4.314-0.668,6.169-2.049c2.079-1.55,3.91-3.113,5.559-4.679c8.125,9.576,12.126,21.396,13.723,27.233l-20.146,0.081
		c-10.526,0.043-21.869,9.068-24.274,19.315l-14.417,61.42c-2.794,11.902,1.378,30.776,8.927,40.394l54.744,69.727
		c2.566,3.269,5.761,5.068,8.997,5.068h0.001c3.256,0,6.459-1.821,9.02-5.131l54.333-70.203c7.48-9.665,11.508-28.561,8.619-40.438
		L293.413,306.555z"/>
	<path d="M470.056,385.183l-43.183-87.613c-5.512-11.182-20.828-24.106-32.777-27.66l-19.134-5.69l-48.382,14.597
		c-3.844,1.161-7.921,1.748-12.12,1.748c-0.001,0-0.002,0-0.003,0c-5.674,0-11.325-1.1-16.626-3.065
		c7.612,6.229,13.375,14.699,15.678,24.168l14.91,61.301c1.612,6.628,1.882,14.289,1.016,22.049
		c9.203,7.909,26.362,14.406,38.491,14.406h0.005c0.349,0,0.692-0.006,1.033-0.017l94.461-3.155
		c3.682-0.123,6.507-1.242,7.556-2.994C472.03,391.505,471.685,388.487,470.056,385.183z"/>
	<path d="M173.396,278.027c-5.379,2.032-11.128,3.171-16.909,3.171c-4.072,0-8.034-0.556-11.775-1.651l-50.121-14.683l-16.963,5.045
		c-11.817,3.514-26.554,16.486-31.537,27.763l-32.728,74.055c-1.65,3.733-1.752,7.218-0.288,9.811
		c1.464,2.595,4.5,4.308,8.549,4.826l82.31,10.515c1.245,0.158,2.599,0.239,4.024,0.239c11.697,0,26.601-5.375,34.636-12.37
		c-0.789-7.404-0.534-14.688,0.956-21.037l14.417-61.421C160.192,292.81,165.863,284.31,173.396,278.027z"/>
	<path d="M258.203,190.099l33.537,57.554c4.196,7.201,13.538,12.231,22.718,12.231h0.001c2.173,0,4.241-0.291,6.147-0.867
		l60.397-18.222c11.773-3.553,26.332-16.591,31.156-27.904l35.277-82.731c1.616-3.789,1.663-7.355,0.132-10.042
		c-1.531-2.687-4.623-4.466-8.706-5.008l-91.313-12.123c-1.284-0.171-2.681-0.256-4.155-0.256c-12.058,0-27.526,5.75-35.216,13.09
		l-45.632,43.564C254.933,166.651,252.903,181.004,258.203,190.099z"/>
	<path d="M58.639,214.31c4.899,11.275,19.546,24.197,31.344,27.654l60.543,17.735c1.851,0.543,3.857,0.817,5.961,0.817
		c9.251,0,18.632-5.105,22.813-12.413l33.073-57.819c5.226-9.138,3.081-23.475-4.591-30.682l-45.981-43.193
		c-7.79-7.317-22.867-12.836-35.069-12.836c-1.573,0-3.061,0.096-4.422,0.287l-91.1,12.723c-4.08,0.569-7.159,2.368-8.671,5.065
		c-1.513,2.697-1.441,6.263,0.2,10.041L58.639,214.31z"/>
	<path d="M221.942,144.53c7.049,6.621,11.562,15.702,13.264,25.294c1.624-9.605,6.064-18.722,13.06-25.4l45.632-43.563
		c2.439-2.328,5.282-4.497,8.387-6.489c-1.018-9.616-4.391-19.774-9.211-26.065L244.634,5.089C242.12,1.808,239.004,0,235.862,0
		c-3.142,0-6.258,1.808-8.774,5.089l-48.436,63.217c-5.105,6.663-8.589,17.659-9.369,27.759c2.438,1.648,4.693,3.408,6.677,5.272
		L221.942,144.53z"/>
</g>
</svg>